<svg xmlns="http://www.w3.org/2000/svg" viewBox="0 0 32 32">
  <path fill="#ffffff" d="M16 3C9.4 3 4 8.3 4 14.8c0 2.3.7 4.5 2 6.4L4 29l8-2.1c1.9 1 4 1.6 6.1 1.6 6.6 0 12-5.3 12-11.8C30 8.3 22.6 3 16 3zm6.6 16.4c-.3.8-1.7 1.5-2.3 1.6-.6.1-1.4.2-2.3-.1-.5-.2-1.2-.4-2-.8-3.6-1.6-5.9-5.6-6.1-5.8-.1-.2-1.4-1.8-1.4-3.4 0-1.6.9-2.4 1.2-2.8.3-.3.6-.4.8-.4h.6c.2 0 .5 0 .7.6.2.6.8 2.2.9 2.3.1.2.1.4 0 .6-.1.2-.2.4-.4.6-.2.2-.4.4-.6.6-.2.2-.4.4-.2.8.2.4 1 1.6 2.1 2.6 1.5 1.4 2.7 1.8 3.1 2 .4.2.6.1.8-.1.2-.2.9-1.1 1.1-1.4.2-.3.4-.2.7-.1.3.1 2 .9 2.4 1.1.4.2.6.2.7.4.1.2.1.9-.2 1.7z"/>
</svg>
